<svg width="181" height="48" viewBox="0 0 181 48" fill="none" xmlns="http://www.w3.org/2000/svg">
    <path d="M90.7027 47L83 40H98L90.7027 47Z" fill="#A69C80" stroke="#C4C4C4" stroke-width="0.25"/>
    <rect x="0.125" y="0.125" width="180.75" height="39.75" rx="3.875" fill="#A69C80" stroke="#999999" stroke-width="0.25"/>
    <path d="M20.8764 16.2276C20.8764 15.0036 21.4119 14.667 22.2534 14.667C23.0949 14.667 23.6304 15.0036 23.6304 16.2276V16.5336H25.7418V16.503C25.7418 13.7796 24.3036 12.8004 22.2534 12.8004C20.2032 12.8004 18.765 13.7796 18.765 16.503V20.4504C18.765 23.1738 20.2032 24.153 22.2534 24.153C24.3036 24.153 25.7418 23.1738 25.7418 20.4504V19.9914H23.6304V20.7258C23.6304 21.9498 23.0949 22.2864 22.2534 22.2864C21.4119 22.2864 20.8764 21.9498 20.8764 20.7258V16.2276ZM34.1517 24V22.1334H30.3267V19.2264H33.1266V17.3598H30.3267V14.82H33.9987V12.9534H28.2153V24H34.1517ZM38.6805 24V16.8702H38.7111L41.9394 24H43.959V12.9534H42.0312V19.5018H42.0006L39.063 12.9534H36.7527V24H38.6805ZM46.106 12.9534V14.82H48.5693V24H50.6807V14.82H53.144V12.9534H46.106ZM62.3852 24L60.3044 19.0734C61.4825 18.6297 61.9721 17.6352 61.9721 16.2582C61.9721 14.1774 60.7634 12.9534 58.2236 12.9534H55.1636V24H57.275V19.5018H58.2848L60.1208 24H62.3852ZM57.275 14.6976H58.3613C59.2946 14.6976 59.8607 15.1566 59.8607 16.2276C59.8607 17.2986 59.2946 17.7576 58.3613 17.7576H57.275V14.6976ZM67.735 15.3402H67.7656L68.7907 19.8078H66.6946L67.735 15.3402ZM65.7154 24L66.3121 21.6744H69.2344L69.7699 24H71.7895L69.1273 12.9534H66.4192L63.6805 24H65.7154ZM79.2049 24V22.1334H75.8083V12.9534H73.6969V24H79.2049ZM88.2113 16.2276C88.2113 15.0036 88.7468 14.667 89.5883 14.667C90.4298 14.667 90.9653 15.0036 90.9653 16.2276V16.5336H93.0767V16.503C93.0767 13.7796 91.6385 12.8004 89.5883 12.8004C87.5381 12.8004 86.0999 13.7796 86.0999 16.503V20.4504C86.0999 23.1738 87.5381 24.153 89.5883 24.153C91.6385 24.153 93.0767 23.1738 93.0767 20.4504V19.9914H90.9653V20.7258C90.9653 21.9498 90.4298 22.2864 89.5883 22.2864C88.7468 22.2864 88.2113 21.9498 88.2113 20.7258V16.2276ZM98.855 15.3402H98.8856L99.9107 19.8078H97.8146L98.855 15.3402ZM96.8354 24L97.4321 21.6744H100.354L100.89 24H102.91L100.247 12.9534H97.5392L94.8005 24H96.8354ZM110.325 24V22.1334H106.928V12.9534H104.817V24H110.325ZM114.614 24V12.9534H112.503V24H114.614ZM119.515 24V19.2264H122.177V17.3598H119.515V14.82H122.912V12.9534H117.404V24H119.515ZM124.783 20.4504C124.783 23.1738 126.221 24.153 128.272 24.153C130.322 24.153 131.76 23.1738 131.76 20.4504V16.503C131.76 13.7796 130.322 12.8004 128.272 12.8004C126.221 12.8004 124.783 13.7796 124.783 16.503V20.4504ZM126.895 16.2276C126.895 15.0036 127.43 14.667 128.272 14.667C129.113 14.667 129.649 15.0036 129.649 16.2276V20.7258C129.649 21.9498 129.113 22.2864 128.272 22.2864C127.43 22.2864 126.895 21.9498 126.895 20.7258V16.2276ZM141.455 24L139.374 19.0734C140.552 18.6297 141.042 17.6352 141.042 16.2582C141.042 14.1774 139.833 12.9534 137.294 12.9534H134.234V24H136.345V19.5018H137.355L139.191 24H141.455ZM136.345 14.6976H137.431C138.365 14.6976 138.931 15.1566 138.931 16.2276C138.931 17.2986 138.365 17.7576 137.431 17.7576H136.345V14.6976ZM145.55 24V16.8702H145.581L148.809 24H150.829V12.9534H148.901V19.5018H148.87L145.933 12.9534H143.623V24H145.55ZM155.852 24V12.9534H153.741V24H155.852ZM161.947 15.3402H161.977L163.002 19.8078H160.906L161.947 15.3402ZM159.927 24L160.524 21.6744H163.446L163.981 24H166.001L163.339 12.9534H160.631L157.892 24H159.927Z" fill="white"/>
</svg>
