<svg width="191" height="47" viewBox="0 0 191 47" fill="none" xmlns="http://www.w3.org/2000/svg">
    <rect x="0.125" y="0.125" width="190.75" height="38.75" rx="3.875" fill="#A69C80" stroke="#999999" stroke-width="0.25"/>
    <path d="M17.9988 25V17.8702H18.0294L21.2577 25H23.2773V13.9534H21.3495V20.5018H21.3189L18.3813 13.9534H16.071V25H17.9988ZM25.8833 21.4504C25.8833 24.1738 27.3215 25.153 29.3717 25.153C31.4219 25.153 32.8601 24.1738 32.8601 21.4504V17.503C32.8601 14.7796 31.4219 13.8004 29.3717 13.8004C27.3215 13.8004 25.8833 14.7796 25.8833 17.503V21.4504ZM27.9947 17.2276C27.9947 16.0036 28.5302 15.667 29.3717 15.667C30.2132 15.667 30.7487 16.0036 30.7487 17.2276V21.7258C30.7487 22.9498 30.2132 23.2864 29.3717 23.2864C28.5302 23.2864 27.9947 22.9498 27.9947 21.7258V17.2276ZM42.5552 25L40.4744 20.0734C41.6525 19.6297 42.1421 18.6352 42.1421 17.2582C42.1421 15.1774 40.9334 13.9534 38.3936 13.9534H35.3336V25H37.445V20.5018H38.4548L40.2908 25H42.5552ZM37.445 15.6976H38.5313C39.4646 15.6976 40.0307 16.1566 40.0307 17.2276C40.0307 18.2986 39.4646 18.7576 38.5313 18.7576H37.445V15.6976ZM43.9576 13.9534V15.82H46.4209V25H48.5323V15.82H50.9956V13.9534H43.9576ZM55.249 25V20.2264H58.2325V25H60.3439V13.9534H58.2325V18.3598H55.249V13.9534H53.1376V25H55.249ZM69.07 25V23.1334H65.245V20.2264H68.0449V18.3598H65.245V15.82H68.917V13.9534H63.1336V25H69.07ZM78.7702 25L76.6894 20.0734C77.8675 19.6297 78.3571 18.6352 78.3571 17.2582C78.3571 15.1774 77.1484 13.9534 74.6086 13.9534H71.5486V25H73.66V20.5018H74.6698L76.5058 25H78.7702ZM73.66 15.6976H74.7463C75.6796 15.6976 76.2457 16.1566 76.2457 17.2276C76.2457 18.2986 75.6796 18.7576 74.7463 18.7576H73.66V15.6976ZM82.8654 25V17.8702H82.896L86.1243 25H88.1439V13.9534H86.2161V20.5018H86.1855L83.2479 13.9534H80.9376V25H82.8654ZM97.8846 17.2276C97.8846 16.0036 98.4201 15.667 99.2616 15.667C100.103 15.667 100.639 16.0036 100.639 17.2276V17.5336H102.75V17.503C102.75 14.7796 101.312 13.8004 99.2616 13.8004C97.2114 13.8004 95.7732 14.7796 95.7732 17.503V21.4504C95.7732 24.1738 97.2114 25.153 99.2616 25.153C101.312 25.153 102.75 24.1738 102.75 21.4504V20.9914H100.639V21.7258C100.639 22.9498 100.103 23.2864 99.2616 23.2864C98.4201 23.2864 97.8846 22.9498 97.8846 21.7258V17.2276ZM108.528 16.3402H108.559L109.584 20.8078H107.488L108.528 16.3402ZM106.509 25L107.105 22.6744H110.028L110.563 25H112.583L109.921 13.9534H107.213L104.474 25H106.509ZM119.998 25V23.1334H116.602V13.9534H114.49V25H119.998ZM124.287 25V13.9534H122.176V25H124.287ZM129.188 25V20.2264H131.85V18.3598H129.188V15.82H132.585V13.9534H127.077V25H129.188ZM134.457 21.4504C134.457 24.1738 135.895 25.153 137.945 25.153C139.995 25.153 141.433 24.1738 141.433 21.4504V17.503C141.433 14.7796 139.995 13.8004 137.945 13.8004C135.895 13.8004 134.457 14.7796 134.457 17.503V21.4504ZM136.568 17.2276C136.568 16.0036 137.103 15.667 137.945 15.667C138.786 15.667 139.322 16.0036 139.322 17.2276V21.7258C139.322 22.9498 138.786 23.2864 137.945 23.2864C137.103 23.2864 136.568 22.9498 136.568 21.7258V17.2276ZM151.128 25L149.048 20.0734C150.226 19.6297 150.715 18.6352 150.715 17.2582C150.715 15.1774 149.507 13.9534 146.967 13.9534H143.907V25H146.018V20.5018H147.028L148.864 25H151.128ZM146.018 15.6976H147.105C148.038 15.6976 148.604 16.1566 148.604 17.2276C148.604 18.2986 148.038 18.7576 147.105 18.7576H146.018V15.6976ZM155.224 25V17.8702H155.254L158.483 25H160.502V13.9534H158.574V20.5018H158.544L155.606 13.9534H153.296V25H155.224ZM165.526 25V13.9534H163.414V25H165.526ZM171.62 16.3402H171.65L172.676 20.8078H170.579L171.62 16.3402ZM169.6 25L170.197 22.6744H173.119L173.655 25H175.674L173.012 13.9534H170.304L167.565 25H169.6Z" fill="white"/>
    <path d="M95.7027 46L88 39H103L95.7027 46Z" fill="#A69C80" stroke="#C4C4C4" stroke-width="0.25"/>
</svg>
