<svg width="166" height="45" viewBox="0 0 166 45" fill="none" xmlns="http://www.w3.org/2000/svg">
    <rect x="0.125" y="0.125" width="165.75" height="36.75" rx="3.875" fill="#A69C80" stroke="#999999" stroke-width="0.25"/>
    <path d="M14.6622 24H16.6818L18.3495 16.4418H18.3801L19.9254 24H21.9603L24.3777 12.9534H22.404L20.9352 20.175H20.9046L19.3746 12.9534H17.3397L15.825 20.175H15.7944L14.3103 12.9534H12.3519L14.6622 24ZM28.6924 24V12.9534H26.581V24H28.6924ZM36.9899 24V22.1334H33.5933V12.9534H31.4819V24H36.9899ZM44.5533 24V22.1334H41.1567V12.9534H39.0453V24H44.5533ZM49.9134 15.3402H49.944L50.9691 19.8078H48.873L49.9134 15.3402ZM47.8938 24L48.4905 21.6744H51.4128L51.9483 24H53.9679L51.3057 12.9534H48.5976L45.8589 24H47.8938ZM57.8031 24V15.3096H57.8337L60.0828 24H61.674L63.9231 15.3096H63.9537V24H65.7591V12.9534H62.8062L60.8937 20.2056H60.8631L58.9506 12.9534H55.9977V24H57.8031ZM74.485 24V22.1334H70.66V19.2264H73.4599V17.3598H70.66V14.82H74.332V12.9534H68.5486V24H74.485ZM76.321 12.9534V14.82H78.7843V24H80.8957V14.82H83.359V12.9534H76.321ZM84.736 12.9534V14.82H87.1993V24H89.3107V14.82H91.774V12.9534H84.736ZM99.73 24V22.1334H95.905V19.2264H98.7049V17.3598H95.905V14.82H99.577V12.9534H93.7936V24H99.73ZM109.343 24H111.745L114.561 12.9534H112.495L110.567 20.8482H110.537L108.594 12.9534H106.513L109.343 24ZM119.803 15.3402H119.834L120.859 19.8078H118.763L119.803 15.3402ZM117.784 24L118.38 21.6744H121.303L121.838 24H123.858L121.196 12.9534H118.488L115.749 24H117.784ZM131.273 24V22.1334H127.877V12.9534H125.765V24H131.273ZM138.837 24V22.1334H135.44V12.9534H133.329V24H138.837ZM146.828 24V22.1334H143.003V19.2264H145.803V17.3598H143.003V14.82H146.675V12.9534H140.892V24H146.828ZM150.791 12.9534H148.542L151.556 19.5324V24H153.667V19.5324L156.681 12.9534H154.432L152.642 17.4057L150.791 12.9534Z" fill="white"/>
    <path d="M81.7027 44L74 37H89L81.7027 44Z" fill="#A69C80" stroke="#C4C4C4" stroke-width="0.25"/>
</svg>
